<?xml version="1.0" encoding="utf-8"?>
<!-- Generator: Adobe Illustrator 15.1.0, SVG Export Plug-In . SVG Version: 6.00 Build 0)  -->
<!DOCTYPE svg PUBLIC "-//W3C//DTD SVG 1.1//EN" "http://www.w3.org/Graphics/SVG/1.1/DTD/svg11.dtd">
<svg version="1.1"
	 id="svg7384" xmlns:cc="http://creativecommons.org/ns#" xmlns:rdf="http://www.w3.org/1999/02/22-rdf-syntax-ns#" xmlns:dc="http://purl.org/dc/elements/1.1/"
	 xmlns="http://www.w3.org/2000/svg" xmlns:xlink="http://www.w3.org/1999/xlink" x="0px" y="0px" width="16px" height="16px"
	 viewBox="0 0 16 16" enable-background="new 0 0 16 16" xml:space="preserve">
<title  id="title9167">Gnome Symbolic Icon Theme</title>
<path fill="#555555" d="M8,1.03c-3.854,0-6.969,3.115-6.969,6.969c0,3.853,3.115,6.969,6.969,6.969s6.969-3.116,6.969-6.969
	C14.969,4.146,11.854,1.03,8,1.03z M3.48,10.923c-0.459,0-0.792-0.351-0.792-0.828c0-0.495,0.333-0.837,0.81-0.837
	c0.468,0,0.792,0.333,0.801,0.837C4.299,10.572,3.975,10.923,3.48,10.923z M5.82,10.923c-0.459,0-0.792-0.351-0.792-0.828
	c0-0.495,0.333-0.837,0.81-0.837c0.468,0,0.792,0.333,0.801,0.837C6.639,10.572,6.315,10.923,5.82,10.923z M8.16,10.923
	c-0.459,0-0.792-0.351-0.792-0.828c0-0.495,0.333-0.837,0.81-0.837c0.469,0,0.793,0.333,0.802,0.837
	C8.979,10.572,8.655,10.923,8.16,10.923z M12.694,4.523h-1.503v6.95h1.503v0.743H8.919v-0.743h1.529v-6.95H8.919V3.74h3.775V4.523z"
	/>
</svg>
